inDegrees=yes
name=ik_greeting_orientation
DataType=double
version=3
OpenSimVersion=4.5
endheader
time	pelvis_tilt	pelvis_list	pelvis_rotation	pelvis_tx	pelvis_ty	pelvis_tz	hip_flexion_r	hip_adduction_r	hip_rotation_r	knee_angle_r	knee_angle_r_beta	ankle_angle_r	subtalar_angle_r	mtp_angle_r	hip_flexion_l	hip_adduction_l	hip_rotation_l	knee_angle_l	knee_angle_l_beta	ankle_angle_l	subtalar_angle_l	mtp_angle_l	lumbar_extension	lumbar_bending	lumbar_rotation	arm_flex_r	arm_add_r	arm_rot_r	elbow_flex_r	pro_sup_r	wrist_flex_r	wrist_dev_r	arm_flex_l	arm_add_l	arm_rot_l	elbow_flex_l	pro_sup_l	wrist_flex_l	wrist_dev_l
0	0.0003746038139607492	-0.002364463401915928	90.4087476563777	0	0.93	0	0.3335678029437091	-0.01422754356617444	-0.09306442530973369	0.8316804363153645	0.01451556193812613	-0.9000060675649886	3.585467919874772e-16	3.561592705830534e-18	0.3474139857906702	-0.01337501677717614	-0.09774456047557674	0.8665452573305138	0.015124067857959	-0.900006067540986	8.808113060490182e-16	5.163884540491645e-17	-2.852841436448822e-28	-2.579221395219785e-28	-2.61485678360273e-27	-3.093055764280996e-17	-8.89919666675323e-18	89.56591845724512	0	0	9.651551193899595e-22	-2.840998245504141e-19	5.968971323608811e-17	-1.885755728412977e-17	89.56634943927703	0	0	1.503875658542914e-20	1.370834579356768e-19
0.0192307692307692	0.01521328885181482	-0.04470508297789222	90.4924492047007	0	0.93	0	0.20036352150565	-0.1073296313383103	-0.2330444645028518	0.8715571043708409	0.01521154109041904	-0.9056705838058925	0	0	0.3765619818159805	0.1112479655533992	-0.851786479614266	0.9317774452444556	0.01626258431533693	-0.9056705837819239	0	0	0	0	0	0	0	89.68386715572962	0	0	0	0	0	0	89.59840094461642	1.003606098049695e-44	2.509015245124237e-45	0	0
0.0384615384615385	0.06023579221968502	-0.07534756591177912	90.40486449256213	0	0.93	0	0.3937547632674526	0.1135168234383913	-1.265687731689508	0.8795190529421182	0.01535050330786228	-0.9591066645587776	0	0	0.8734471575363253	0.6352268982231857	-5.000572139750575	2.057663885089649	0.03591300969419263	-0.9591066645328021	0	0	0	0	0	0	0	89.45930113093466	0	0	0	0	0	0	89.35777941438671	2.596428635504248e-39	1.052357267868557e-38	0	0
0.0576923076923077	0.05527198802167034	-0.05429512975649627	90.4962444495067	0	0.93	0	0.3406448928740362	-0.000616786962038051	-0.1009913155177832	0.7390387338698791	0.01289865920579952	-0.9679884141991224	0	0	0.8172070686577765	0.698741372886879	-5.182812059886359	2.141631871406546	0.03737852752169203	-0.9679884141732058	0	0	0	0	0	0	0	89.65507587325345	0	0	0	0	0	0	89.62044301016729	0	0	0	0
0.0769230769230769	0.0560382647650248	-0.07688233554830395	90.56988914294027	0	0.93	0	0.3287408819500313	0.01128630866997201	0.5291652007723789	0.5368695689085334	0.009370141631216487	-0.9900487162660373	0	0	0.6094680618938649	0.7444359879563074	-2.745786461949725	1.461360348557626	0.02550554964042253	-0.9900487162402675	0	0	0	0	0	0	0	89.65416488674981	0	6.429351565630857e-45	0	0	0	0	89.63577932925506	0	0	0	0
0.0961538461538462	0.0766586341361101	-0.1381976836836406	90.50375150688046	0	0.93	0	0.365098066566647	0.1502029115416402	0.1782500375153383	0.5985040355627783	0.01044586600704371	-0.9958123811496403	0	0	0.6313807079972916	0.7619427604272624	-2.226031179112157	1.482288271800216	0.02587081080661038	-0.9958123811239089	0	0	0	0	0	0	0	89.55633966550661	3.822327912493954e-46	0	0	0	0	0	89.63476260759774	0	4.704403584607944e-46	0	0
0.1153846153846154	0.1021534115840607	-0.1698724727232079	90.51211553143712	-5.553580772748857e-40	0.93	-2.92800528355468e-28	0.4409835118266433	0.2375989171752253	-0.9510334579233956	0.7480830746131507	0.01305651273044189	-1.018526149380198	7.262656484997902e-18	-1.614149445002844e-20	0.6330641116486951	-0.07043147772532483	-0.4583182171798207	0.9658846152370437	0.016857866730245	-1.01852614934433	-3.229788972892621e-17	-7.716755267510417e-22	-1.205994211258761e-26	2.942765198391779e-17	-4.267106248298714e-18	1.329264446125812e-18	1.350497250561539e-17	89.4558110808339	0	6.33079822870994e-15	-9.001923605720333e-21	2.250248745444826e-21	-1.210587607951375e-18	5.863322592827857e-18	89.21238318452005	8.699393789268991e-15	6.460862499647096e-15	5.365647787537975e-21	5.871891415754392e-20
0.1346153846153846	0.11103296355057	-0.1454439001410796	90.8137360463392	0	0.93	0	0.4083420433323885	0.117416545346847	-0.1322843891003599	0.5343249374177306	0.009325729433452046	-1.058311390395693	0	0	0.5576172088702513	0.3011017446692196	-4.100200149770007	1.770190930958055	0.03089566013416167	-1.058311390360276	0	0	0	0	0	0	0	89.46280122053288	0	0	0	0	0	0	89.60774154635342	0	1.467444923773662e-39	0	0
0.1538461538461539	0.1045344207483554	-0.1578750916781193	90.62021630453745	0	0.93	0	0.4279187780507922	0.05610825243647723	0.3722077118805295	0.5914375100854513	0.0103225318707883	-1.077244350838299	0	0	0.4247018002161633	0.5021838300512788	-1.940396778416397	1.159947408875077	0.02024490143484698	-1.07724435082316	0	0	0	0	0	0	0	89.5744657108083	0	3.124579397564809e-40	0	0	0	0	89.56118716813167	8.444915018973642e-39	1.322518401117531e-39	0	0
0.1730769230769231	0.09458313155047854	-0.1223078333045506	90.63951666498265	0	0.93	0	0.3257410176022348	0.08109625870515315	-0.0577368198510031	0.6017182320497427	0.01050196431854728	-1.117312116855469	0	0	0.8958519564696421	0.4534029255636746	-4.200573710738971	2.12852768419704	0.03714981630908842	-1.117312116840488	0	0	0	0	0	0	0	89.52544650956165	4.187160065565443e-39	0	0	0	0	0	89.72466117325214	2.264596302504004e-38	0	0	0
0.1923076923076923	0.09332428121809756	-0.1601851613951683	90.61448654037814	0	0.93	0	0.5827907828286618	0.06806629120307495	-0.4017364147832053	0.6048081540070114	0.01055589363033128	-1.145369779190111	0	0	0.8565687306360752	0.7711812266808897	-6.43981848519519	2.447375187010988	0.0427147550449537	-1.14536977917521	0	0	0	0	0	0	0	89.50214957503441	2.104714535737113e-38	0	0	0	0	0	89.5868403777049	0	0	0	0
0.2115384615384615	0.08681474575827562	-0.1514774485539458	90.52008071484042	0	0.93	0	0.6189227020123915	0.1976594942309901	-0.2897245805272854	0.6581129409560602	0.01148623766966629	-1.147377109504577	0	0	0.9475234924228222	0.9816481530305115	-6.009019237206737	2.42901199168424	0.04239425682531511	-1.147377109489684	0	0	0	0	0	0	0	89.50990840295583	0	3.763522867686355e-45	0	0	0	0	89.53221862953812	7.52704573537271e-45	0	0	0
0.2307692307692307	0.0715013238421562	-0.1603696155488592	90.67519301605903	0	0.93	0	0.4601584119161292	0.1377818249263809	-0.3413660574598051	0.5241561364475441	0.009148250375542299	-1.192253180720995	0	0	0.4921670864570156	0.2953298954119208	-0.3311537284335438	1.012121930228103	0.01766486011412072	-1.192253180706252	0	0	0	0	0	0	0	89.3109550795962	0	0	0	0	0	0	89.47529065073346	2.104714535737113e-38	0	0	0
0.2499999999999999	0.08882962648138371	-0.1361860681754251	90.62803843314278	0	0.93	0	0.4308189748094926	0.1720433125687924	-0.4501024172954231	0.5978905800222848	0.0104351591880475	-1.237858439918318	0	0	0.9211730037372482	0.5455263229987303	-4.775063359551594	2.100092230895708	0.0366535240246831	-1.237858439903691	0	0	0	0	0	0	0	89.57078627842245	0	0	0	0	0	0	89.52688285907134	0	0	0	0
0.2692307692307692	0.07015918691793886	-0.133259122412357	90.46124447410092	0	0.93	0	0.4304557212699585	0.2273313427796479	-0.7890236735345826	0.6508468393240775	0.01135942027240366	-1.284884403561524	0	0	1.534984431404336	0.5009703523154497	-6.87130451798923	3.127658156401933	0.05458793270606949	-1.28488440354704	0	0	0	0	0	0	0	89.52194605452334	0	0	0	0	0	0	89.26804839106751	0	0	0	0
0.2884615384615384	0.06902952329596221	-0.1327499477529699	90.35008261865231	-2.849906329671695e-47	0.93	-1.707848845893696e-37	0.5337023573821927	-0.03239064056002238	1.732379368267326	0.4214627667845945	0.007355912954956169	-1.337347847379159	5.662437446802202e-13	-4.799458149892609e-16	0.7624198469270405	-0.1061463213424925	-1.119608562460626	1.281055818118663	0.0223586419280003	-1.337347847340446	7.120123892948862e-17	3.602856005571546e-14	-1.872932979911125e-27	-2.203437978701512e-27	1.425726064813589e-26	-2.640988046634594e-17	-7.71706899092904e-15	89.59517015318269	0	0	-4.934575734056422e-24	3.034372931482143e-21	-3.019663351257125e-14	-5.07606567059054e-14	89.29926516975085	2.536387579281773e-15	0	3.601906769687902e-23	-9.960700732244913e-21
